<?xml version="1.0" standalone="no"?>
<!DOCTYPE svg PUBLIC "-//W3C//DTD SVG 20010904//EN"
 "http://www.w3.org/TR/2001/REC-SVG-20010904/DTD/svg10.dtd">
<svg version="1.0" xmlns="http://www.w3.org/2000/svg"
 width="300.000000pt" height="300.000000pt" viewBox="0 0 300.000000 300.000000"
 preserveAspectRatio="xMidYMid meet">
<metadata>
Created by potrace 1.10, written by Peter Selinger 2001-2011
</metadata>
<g transform="translate(0.000000,300.000000) scale(0.100000,-0.100000)"
fill="#000000" stroke="none">
<path d="M500 2906 c-60 -22 -117 -49 -165 -79 -26 -16 -146 -136 -162 -162
-23 -37 -74 -144 -79 -167 -3 -13 -10 -41 -14 -63 -5 -22 -9 -443 -10 -935 0
-992 -3 -947 66 -1088 43 -88 141 -197 223 -246 31 -19 92 -47 136 -63 l80
-28 865 -3 c902 -3 980 0 1086 39 77 29 193 108 245 167 54 63 112 167 136
247 16 55 18 132 20 960 2 718 0 911 -11 955 -54 224 -200 388 -411 461 l-80
28 -930 0 -930 0 -65 -23z m1984 -19 c204 -71 349 -225 402 -429 14 -56 16
-142 13 -810 -2 -412 -6 -748 -9 -748 -3 0 -5 -56 -4 -125 1 -69 -2 -125 -5
-125 -3 0 -6 -28 -7 -63 -1 -46 -9 -78 -29 -122 -16 -33 -32 -62 -37 -63 -4
-2 -8 -8 -8 -14 0 -36 -164 -191 -216 -204 -13 -4 -24 -9 -24 -13 0 -11 -79
-36 -87 -28 -3 4 1 7 11 7 9 0 33 10 54 23 20 12 49 28 63 36 28 14 119 98
158 145 36 45 81 132 81 158 0 13 5 29 11 35 21 21 21 22 13 1028 -6 834 -8
863 -66 984 -36 77 -145 192 -222 234 -117 65 -61 61 -1056 64 -757 2 -915 0
-965 -12 -195 -47 -352 -204 -399 -400 -17 -71 -26 -487 -27 -1305 0 -445 2
-545 15 -595 20 -80 45 -135 87 -187 42 -53 130 -138 144 -138 18 -1 62 -40
45 -40 -29 0 -155 106 -205 172 -47 62 -93 174 -98 236 -1 12 -4 22 -7 22 -7
0 -13 644 -14 1345 -1 520 -3 502 67 644 45 92 151 197 247 244 142 69 87 66
1105 64 840 -3 924 -4 969 -20z m-55 -60 c114 -32 176 -70 260 -156 69 -71
110 -147 130 -239 8 -37 11 -322 11 -935 0 -973 2 -939 -63 -1061 -41 -78
-125 -162 -203 -203 -122 -65 -87 -63 -1069 -63 -574 0 -906 4 -935 11 -117
27 -250 121 -315 224 -18 28 -43 79 -56 115 l-24 65 0 905 c0 498 3 919 7 935
27 125 123 263 227 329 45 29 131 65 171 73 13 2 27 6 29 9 7 7 1804 -1 1830
-9z m25 -2699 c-3 -4 -35 -7 -72 -7 -56 2 -61 3 -27 8 60 9 105 9 99 -1z"/>
<path d="M1410 2391 c-96 -29 -133 -74 -209 -254 -33 -80 -61 -149 -61 -152 0
-3 -9 -25 -19 -48 -27 -60 -390 -971 -412 -1036 -34 -97 -23 -169 34 -230 59
-62 136 -84 218 -61 67 19 108 83 184 288 l43 117 305 3 305 2 27 -72 c60
-160 107 -257 142 -292 81 -81 211 -73 291 19 75 85 71 144 -25 380 -25 60
-69 169 -98 240 -29 72 -73 180 -98 240 -25 61 -66 162 -92 225 -26 63 -53
129 -60 145 -8 17 -41 97 -75 179 -34 83 -70 166 -80 187 -23 43 -86 96 -138
115 -40 14 -142 17 -182 5z m200 -43 c49 -22 84 -63 115 -133 15 -33 31 -69
36 -80 24 -53 108 -261 204 -503 58 -147 112 -280 120 -297 7 -16 17 -41 21
-55 4 -14 17 -47 30 -75 84 -185 154 -407 132 -421 -4 -3 -6 -10 -2 -15 16
-26 -70 -114 -109 -112 -9 1 -15 -2 -12 -8 4 -5 -14 -9 -39 -9 -25 0 -46 4
-46 10 0 5 15 9 33 8 37 -1 103 30 132 64 33 38 27 134 -15 238 -18 47 -37 87
-41 90 -4 3 -13 25 -20 50 -7 25 -18 54 -25 65 -7 11 -25 52 -39 90 -26 66
-48 119 -81 190 -7 17 -34 82 -59 145 -52 130 -65 160 -88 210 -9 19 -32 76
-52 125 -20 50 -47 113 -59 140 -13 28 -36 79 -51 115 -36 83 -67 116 -127
136 -81 27 -175 7 -224 -48 -19 -20 -84 -147 -84 -164 0 -3 -6 -20 -14 -37
-22 -47 -126 -302 -191 -467 -32 -80 -61 -149 -65 -155 -6 -8 -62 -148 -66
-165 -1 -6 -13 -36 -54 -131 -16 -39 -30 -77 -30 -85 0 -8 -4 -14 -10 -14 -5
0 -10 -9 -10 -19 0 -11 -4 -22 -8 -25 -4 -3 -14 -28 -22 -55 -7 -28 -17 -51
-20 -51 -4 0 -7 -6 -8 -12 0 -7 -4 -36 -8 -65 -6 -43 -3 -57 16 -87 12 -20 36
-44 53 -53 29 -16 30 -18 10 -21 -37 -6 -87 49 -108 117 -5 16 -4 21 4 17 7
-5 8 0 2 15 -7 22 9 83 44 164 7 17 20 55 30 85 9 30 25 73 35 95 24 55 72
172 114 283 20 50 51 131 70 180 19 48 46 116 59 152 70 187 190 475 211 507
61 89 203 121 316 71z m-7 -75 c40 -28 71 -100 367 -823 62 -151 139 -340 171
-419 74 -178 87 -227 68 -266 -21 -42 -64 -70 -109 -70 -69 0 -93 37 -186 283
-24 64 -52 123 -61 130 -13 9 -101 12 -359 12 -311 0 -344 -2 -362 -17 -11
-10 -39 -72 -63 -138 -53 -148 -92 -237 -110 -251 -44 -35 -117 -20 -158 32
-39 50 -51 15 327 959 220 548 218 545 264 573 49 31 164 28 211 -5z m275
-1295 c23 -57 47 -121 54 -143 23 -67 56 -122 90 -149 30 -23 31 -26 11 -26
-34 0 -85 76 -133 198 -23 59 -46 111 -51 117 -5 5 -9 15 -9 22 0 8 -9 24 -21
36 -20 22 -25 22 -320 25 l-300 3 -29 -29 c-17 -17 -36 -53 -46 -88 -24 -84
-52 -146 -63 -140 -5 3 -7 -3 -4 -13 3 -11 -4 -33 -16 -50 -12 -16 -21 -33
-21 -37 0 -5 -14 -21 -32 -36 -27 -22 -41 -27 -85 -27 -31 1 -50 5 -47 11 3 5
21 8 39 7 32 -3 78 19 103 50 22 28 65 128 103 239 17 48 37 97 45 110 l14 22
339 0 339 0 40 -102z"/>
<path d="M1462 2037 c-10 -12 -24 -49 -140 -367 -131 -363 -129 -356 -108
-379 18 -20 28 -21 278 -21 248 0 259 1 279 21 11 11 19 26 16 32 -106 300
-254 696 -265 710 -18 20 -45 22 -60 4z m44 -35 c5 -4 23 -43 38 -87 15 -44
65 -183 111 -310 106 -292 103 -282 72 -294 -31 -12 -446 -11 -471 2 -27 13
-29 5 145 492 78 220 77 217 105 197z"/>
<path d="M1500 1859 c0 -9 38 -122 85 -251 47 -130 85 -237 85 -239 0 -2 -81
-4 -180 -4 -99 0 -179 2 -177 5 22 46 167 460 166 478 -1 36 -34 -33 -92 -187
-101 -272 -107 -301 -69 -316 29 -11 345 -5 359 7 22 18 15 48 -62 257 -69
190 -114 288 -115 250z"/>
</g>
</svg>
