<svg xmlns="http://www.w3.org/2000/svg" width="400" height="400" viewBox="0 0 400 400" version="1.1">
	<path d="M 15.500 69 C 15.889 69.630, 13.543 70, 9.157 70 L 2.196 70 3.604 74.680 C 4.780 78.587, 5.016 98.683, 5.034 196.448 C 5.055 317.429, 4.942 321.293, 1.084 331.315 C 0.488 332.863, -0 340.246, 0 347.720 C 0 361.139, 0.025 361.288, 1.953 359.542 C 8.391 353.716, 16.755 333.905, 19.066 319.010 C 20.722 308.338, 19.735 81.584, 17.998 73.750 C 17.297 70.588, 16.309 68, 15.803 68 C 15.296 68, 15.160 68.450, 15.500 69 M 39.637 69.778 C 37.435 73.341, 37.038 93.538, 37.020 203.020 C 37 319.310, 37.038 321.681, 39.044 329.020 C 41.850 339.292, 43.906 344.633, 47.312 350.500 C 60.424 373.089, 83.977 388.558, 109 391.015 C 121.389 392.232, 335.792 392.249, 347.340 391.034 C 364.260 389.254, 379.395 382.321, 393.050 370.095 L 400 363.873 400 350.200 L 400 336.527 396.359 342.013 C 384.307 360.173, 373.674 368.580, 355.548 374.282 L 348.500 376.500 228.500 376.500 C 116.367 376.500, 108.074 376.383, 102 374.713 C 78.772 368.329, 58.875 348.368, 52.943 325.500 C 51.927 321.583, 51.567 295.251, 51.280 203.964 C 50.947 97.541, 51.279 76.817, 53.394 71.934 C 53.980 70.583, 53.227 70.428, 47.925 70.812 C 43.707 71.117, 41.537 70.869, 41.013 70.022 C 40.540 69.256, 40.017 69.163, 39.637 69.778 M 215.951 81.299 C 209.806 83.041, 205.154 86.057, 199.842 91.743 C 196.024 95.829, 194.234 99.460, 187.140 117.500 C 182.599 129.050, 178.406 139.367, 177.823 140.427 C 176.393 143.025, 156.237 193.335, 154.357 199 C 153.535 201.475, 151.941 205.521, 150.813 207.990 C 149.105 211.734, 142.588 227.824, 132.887 252.250 C 131.849 254.863, 130.140 259.137, 129.089 261.750 C 126.845 267.327, 123.064 277.068, 122.587 278.500 C 122.404 279.050, 122.157 279.825, 122.038 280.223 C 121.918 280.621, 121.189 283.044, 120.417 285.608 C 117.571 295.067, 120.889 306.956, 128.224 313.583 C 134.934 319.646, 139.900 321.297, 149.968 320.816 C 158.986 320.385, 162.856 318.770, 167.286 313.589 C 170.039 310.369, 176.616 296.139, 181.576 282.672 C 184.042 275.977, 186.550 269.262, 187.151 267.750 L 188.243 265 227.873 265 L 267.503 265 272.392 278.250 C 279.154 296.577, 286.429 311.340, 290.314 314.619 C 298.679 321.681, 311.305 323.197, 321.510 318.365 C 327.422 315.566, 333.139 309.785, 335.716 304 C 338.304 298.194, 337.573 287.253, 333.887 276.589 C 332.159 271.590, 330.167 266.375, 329.462 265 C 328.756 263.625, 326.741 258.900, 324.985 254.500 C 323.229 250.100, 317.526 236.150, 312.312 223.500 C 307.098 210.850, 300.667 195.100, 298.020 188.500 C 283.226 151.609, 283.472 152.205, 279.003 142.500 C 276.593 137.265, 272.429 127.279, 262.144 102.069 C 258.940 94.217, 251.816 86.774, 244.087 83.204 C 237.542 80.181, 223.292 79.216, 215.951 81.299 M 218.500 95.503 C 212.024 97.794, 208 103.117, 202.630 116.500 C 199.981 123.100, 196.956 130.408, 195.907 132.739 C 194.858 135.071, 194 137.248, 194 137.577 C 194 137.906, 189.986 148.148, 185.080 160.338 C 164.817 210.685, 154.049 237.626, 151.443 244.500 C 150.192 247.800, 147.060 255.675, 144.482 262 C 137.653 278.759, 134 289.577, 134 293.048 C 134 302.129, 144.734 309.424, 153.036 305.985 C 155.537 304.949, 157.001 302.848, 160.960 294.607 C 163.631 289.048, 166.771 281.575, 167.937 278 C 169.104 274.425, 170.463 270.600, 170.958 269.500 C 171.453 268.400, 172.822 264.800, 174.001 261.500 C 175.180 258.200, 177.091 254.488, 178.247 253.250 L 180.349 251 227.564 251 C 271.059 251, 274.945 251.138, 276.891 252.750 C 278.140 253.784, 281.442 260.983, 284.966 270.353 C 296.808 301.840, 300.733 307.594, 309.744 306.678 C 314.599 306.185, 320.631 302.100, 322.062 298.337 C 324.401 292.186, 322.986 287.432, 307.527 249.500 C 302.147 236.300, 295.053 218.750, 291.762 210.500 C 288.471 202.250, 285.443 195.050, 285.033 194.500 C 284.624 193.950, 284.039 192.600, 283.733 191.500 C 283.427 190.400, 281.060 184.550, 278.473 178.500 C 275.886 172.450, 272.517 164.350, 270.987 160.500 C 269.456 156.650, 266.860 150.119, 265.217 145.986 C 263.575 141.853, 258.758 130.261, 254.513 120.224 C 246.205 100.583, 243.663 97.117, 236 94.985 C 231.056 93.609, 223.195 93.842, 218.500 95.503 M 222.763 128.750 C 220.922 130.833, 217.642 139.152, 208.666 164.500 C 199.018 191.749, 193.501 207.098, 191.238 212.988 C 187.672 222.271, 187.298 226.298, 189.773 228.773 C 191.551 230.551, 193.682 230.862, 208.639 231.529 C 231.269 232.537, 264.692 231.066, 266.084 229 C 267.781 226.483, 266.341 218.896, 262.182 208.447 C 260.004 202.976, 256.985 194.900, 255.473 190.500 C 253.960 186.100, 251.407 178.900, 249.798 174.500 C 243.856 158.249, 238.719 144.377, 237.020 140 C 236.060 137.525, 234.715 134.028, 234.032 132.229 C 232.057 127.029, 225.950 125.144, 222.763 128.750 M 225.197 161.214 C 224.061 164.121, 219.921 175.500, 215.997 186.500 C 209.788 203.905, 207.380 210.479, 205.283 215.750 C 204.894 216.728, 209.709 217, 227.393 217 C 239.827 217, 250 216.790, 250 216.534 C 250 216.278, 249.350 214.590, 248.556 212.784 C 247.362 210.069, 241.362 193.540, 234.297 173.500 C 232.560 168.573, 227.865 156.604, 227.517 156.214 C 227.376 156.057, 226.332 158.307, 225.197 161.214 M 1.762 399.707 C 3.006 399.946, 4.806 399.937, 5.762 399.687 C 6.718 399.437, 5.700 399.241, 3.500 399.252 C 1.300 399.263, 0.518 399.468, 1.762 399.707 M 12.750 399.737 C 15.638 399.939, 20.363 399.939, 23.250 399.737 C 26.138 399.535, 23.775 399.370, 18 399.370 C 12.225 399.370, 9.863 399.535, 12.750 399.737 " stroke="none" fill="black" fill-rule="evenodd"/>
</svg>